<svg width="96" height="96" viewBox="0 0 481 458" fill="none" xmlns="http://www.w3.org/2000/svg">
<rect width="481" height="458" fill="white"/>
<path d="M81.9778 201.971C67.0259 215.371 59.5499 235.306 59.5499 261.778C59.5499 278.446 64.1902 294.133 73.4707 308.84C83.009 323.546 98.9921 330.9 121.42 330.9C143.848 330.9 165.116 321.259 185.223 301.977C205.331 282.694 220.541 261.615 230.853 238.738L244 268.641C210.745 340.214 164.471 376 105.179 376C75.7908 376 50.9139 366.032 30.5483 346.096C10.1828 325.834 0 302.14 0 275.014C0 227.626 16.6276 193.311 49.8827 172.068C38.7977 154.747 33.2552 134.484 33.2552 111.28C33.2552 80.8866 43.5668 54.7414 64.1902 32.8449C85.0713 10.9483 109.175 0 136.501 0C163.827 0 184.837 8.824 199.531 26.472C214.483 44.1199 221.959 67.3238 221.959 96.0835H185.223C185.481 78.4355 181.743 65.1995 174.01 56.3755C166.534 47.2247 155.964 42.6493 142.301 42.6493C128.896 42.6493 116.78 48.8588 105.952 61.2777C93.8362 74.6771 87.7781 90.3642 87.7781 108.339C87.7781 126.314 91.645 141.837 99.3788 154.91C125.158 150.988 144.75 153.113 158.155 161.283C166.405 166.185 170.529 174.029 170.529 184.814C170.529 195.272 165.76 202.625 156.222 206.874C146.941 211.122 135.727 213.246 122.58 213.246C109.433 213.246 95.8986 209.488 81.9778 201.971Z" fill="#4AC0FF"/>
<path d="M469.535 346.78L481 371.439C469.297 429.146 445.054 458 408.272 458C399.912 458 392.627 455.819 386.417 451.458C380.446 447.096 375.908 441.896 372.803 435.857C369.698 429.817 367.19 422.101 365.28 412.707C362.652 398.615 361.219 379.995 360.98 356.845C360.98 333.695 358.95 317.758 354.89 309.035C351.068 300.312 343.664 295.447 332.677 294.441L336.618 251.664C337.096 251.664 337.454 251.664 337.693 251.664C351.546 251.664 363.01 246.128 372.087 235.056C381.879 222.642 386.776 206.706 386.776 187.246C386.776 167.787 380.207 151.347 367.071 137.927C354.173 124.507 337.454 117.797 316.913 117.797C290.402 117.797 269.98 127.023 255.65 145.476C248.007 155.541 244.185 167.619 244.185 181.711C244.185 199.492 253.858 210.229 273.205 213.919L268.189 251.664C253.619 250.657 240.722 243.779 229.496 231.03C218.27 218.281 212.657 201.841 212.657 181.711C212.657 146.482 223.167 119.474 244.185 100.686C265.203 81.5619 291.835 72 324.079 72C344.858 72 363.13 75.5228 378.894 82.5685C405.883 95.3177 423.797 117.461 432.634 148.999C435.5 160.07 436.933 169.129 436.933 176.175C436.933 182.885 436.933 187.414 436.933 189.763C435.978 208.216 431.081 226.333 422.244 244.115C413.646 261.897 400.629 274.143 383.193 280.853C393.702 283.872 400.867 290.247 404.689 299.977C408.51 309.706 410.541 324.469 410.78 344.263C411.018 378.15 412.093 398.783 414.004 406.164C416.154 413.21 420.453 416.733 426.902 416.733C444.337 416.733 458.549 393.415 469.535 346.78ZM249.917 458C237.259 458 227.108 452.632 219.465 441.896C211.822 431.16 208 417.907 208 402.138C208 361.206 229.377 326.985 272.13 299.473C280.728 205.532 285.147 157.386 285.386 155.038C295.417 145.979 306.762 141.45 319.421 141.45C324.676 141.45 330.647 142.456 337.335 144.469L314.764 359.361C307.598 425.12 285.983 458 249.917 458ZM234.512 396.099C234.512 406.835 238.572 412.203 246.693 412.203C256.247 412.203 262.337 400.125 264.965 375.969L268.189 341.747C245.738 360.2 234.512 378.317 234.512 396.099Z" fill="#FFB44A"/>
</svg>
